<svg xmlns="http://www.w3.org/2000/svg" xmlns:xlink="http://www.w3.org/1999/xlink" width="24" height="24" viewBox="0 0 24 24"><defs><style>.a{fill:#fff;stroke:#c1c1c1;}.b{clip-path:url(#a);}.c{fill:none;}.d{fill:#c1c1c1;}</style><clipPath id="a"><rect class="a" width="24" height="24"/></clipPath></defs><g class="b"><g transform="translate(2.633 2.633)"><path class="c" d="M0,0H18.733V18.733H0Z"/><g transform="translate(0.721 0.721)"><path class="c" d="M0,0H17.292V17.292H0ZM0,0H17.292V17.292H0ZM0,0H17.292V17.292H0ZM0,0H17.292V17.292H0Z"/><path class="d" d="M8.926,5.008A7.04,7.04,0,0,1,15.28,8.971a6.95,6.95,0,0,1-1.736,2.248l1.016,1.016a8.5,8.5,0,0,0,2.291-3.264A8.526,8.526,0,0,0,6.3,3.977L7.492,5.166A7.283,7.283,0,0,1,8.926,5.008Zm-.771.821L9.646,7.321a1.8,1.8,0,0,1,.922.922L12.06,9.734a3.372,3.372,0,0,0,.1-.771A3.23,3.23,0,0,0,8.926,5.728,3.058,3.058,0,0,0,8.155,5.829ZM1.728,3.473,3.659,5.4A8.457,8.457,0,0,0,1,8.971a8.521,8.521,0,0,0,7.926,5.4,8.451,8.451,0,0,0,3.113-.591L14.5,16.248l1.016-1.016L2.744,2.45Zm5.4,5.4,1.881,1.881a.362.362,0,0,1-.086.014,1.8,1.8,0,0,1-1.8-1.8C7.124,8.935,7.132,8.913,7.132,8.877Zm-2.45-2.45L5.943,7.688a3.315,3.315,0,0,0-.259,1.283A3.246,3.246,0,0,0,10.2,11.954l.706.706a7.517,7.517,0,0,1-1.981.274A7.04,7.04,0,0,1,2.571,8.971,7.134,7.134,0,0,1,4.682,6.427Z" transform="translate(-0.279 -0.685)"/></g></g></g></svg>